<svg xmlns="http://www.w3.org/2000/svg" viewBox="0 0 200 200">
  <!-- Bicycle wheels -->
  <circle cx="50" cy="150" r="30" fill="none" stroke="black" stroke-width="3"/>
  <circle cx="150" cy="150" r="30" fill="none" stroke="black" stroke-width="3"/>
  <!-- Bicycle frame -->
  <line x1="50" y1="150" x2="100" y2="110" stroke="black" stroke-width="3"/>
  <line x1="100" y1="110" x2="150" y2="150" stroke="black" stroke-width="3"/>
  <line x1="80" y1="150" x2="120" y2="150" stroke="black" stroke-width="3"/>
  <line x1="100" y1="110" x2="100" y2="80" stroke="black" stroke-width="3"/>
  <!-- Handlebars and seat -->
  <line x1="130" y1="90" x2="150" y2="110" stroke="black" stroke-width="3"/>
  <line x1="70" y1="90" x2="100" y2="80" stroke="black" stroke-width="3"/>
  <!-- Pelican body -->
  <ellipse cx="100" cy="60" rx="25" ry="15" fill="white" stroke="black"/>
  <ellipse cx="110" cy="40" rx="15" ry="12" fill="white" stroke="black"/>
  <!-- Pelican beak -->
  <polygon points="125,40 155,45 125,50" fill="orange" stroke="black"/>
  <!-- Pelican legs -->
  <line x1="100" y1="75" x2="80" y2="110" stroke="black" stroke-width="3"/>
  <line x1="110" y1="75" x2="120" y2="110" stroke="black" stroke-width="3"/>
  <!-- Simple wings -->
  <path d="M85 60 Q75 50 90 45" fill="white" stroke="black"/>
  <path d="M115 60 Q125 50 110 45" fill="white" stroke="black"/>
</svg>
